<svg id="visual" viewBox="0 0 960 540" width="960" height="540" xmlns="http://www.w3.org/2000/svg" xmlns:xlink="http://www.w3.org/1999/xlink" version="1.1"><g stroke-width="1" stroke-linejoin="bevel"><path d="M570 331L749 179L593 171Z" fill="#8d8d8d" stroke="#8d8d8d"></path><path d="M570 331L765 351L749 179Z" fill="#9b9b9b" stroke="#9b9b9b"></path><path d="M789 0L546 0L593 171Z" fill="#8d8d8d" stroke="#8d8d8d"></path><path d="M343 197L393 374L570 331Z" fill="#737373" stroke="#737373"></path><path d="M960 179L789 0L749 179Z" fill="#808080" stroke="#808080"></path><path d="M749 179L789 0L593 171Z" fill="#808080" stroke="#808080"></path><path d="M343 197L570 331L593 171Z" fill="#c4c4c4" stroke="#c4c4c4"></path><path d="M554 540L770 540L765 351Z" fill="#e1e1e1" stroke="#e1e1e1"></path><path d="M554 540L765 351L570 331Z" fill="#737373" stroke="#737373"></path><path d="M765 351L960 179L749 179Z" fill="#a8a8a8" stroke="#a8a8a8"></path><path d="M393 374L554 540L570 331Z" fill="#808080" stroke="#808080"></path><path d="M960 360L960 179L765 351Z" fill="#8d8d8d" stroke="#8d8d8d"></path><path d="M770 540L960 360L765 351Z" fill="#ffffff" stroke="#ffffff"></path><path d="M388 0L343 197L593 171Z" fill="#737373" stroke="#737373"></path><path d="M546 0L388 0L593 171Z" fill="#e1e1e1" stroke="#e1e1e1"></path><path d="M226 540L393 540L393 374Z" fill="#c4c4c4" stroke="#c4c4c4"></path><path d="M393 374L393 540L554 540Z" fill="#c4c4c4" stroke="#c4c4c4"></path><path d="M960 179L960 0L789 0Z" fill="#e1e1e1" stroke="#e1e1e1"></path><path d="M770 540L960 540L960 360Z" fill="#8d8d8d" stroke="#8d8d8d"></path><path d="M343 197L196 395L393 374Z" fill="#c4c4c4" stroke="#c4c4c4"></path><path d="M149 164L196 395L343 197Z" fill="#808080" stroke="#808080"></path><path d="M196 395L226 540L393 374Z" fill="#9b9b9b" stroke="#9b9b9b"></path><path d="M181 0L149 164L343 197Z" fill="#c4c4c4" stroke="#c4c4c4"></path><path d="M388 0L181 0L343 197Z" fill="#d3d3d3" stroke="#d3d3d3"></path><path d="M149 164L0 372L196 395Z" fill="#b6b6b6" stroke="#b6b6b6"></path><path d="M196 395L0 540L226 540Z" fill="#a8a8a8" stroke="#a8a8a8"></path><path d="M0 140L0 372L149 164Z" fill="#9b9b9b" stroke="#9b9b9b"></path><path d="M0 0L0 140L149 164Z" fill="#f0f0f0" stroke="#f0f0f0"></path><path d="M181 0L0 0L149 164Z" fill="#9b9b9b" stroke="#9b9b9b"></path><path d="M0 372L0 540L196 395Z" fill="#ffffff" stroke="#ffffff"></path></g></svg>